<svg xmlns="http://www.w3.org/2000/svg" viewBox="0 0 142.62 25.61"><defs><style>.cls-1{fill:#fff;}.cls-2{fill:#fcc133;}</style></defs><g id="Calque_2" data-name="Calque 2"><g id="Calque_1-2" data-name="Calque 1"><path class="cls-1" d="M16.82,16.37a10.05,10.05,0,0,1-.62,3.51,9.21,9.21,0,0,1-1.74,2.92,8.48,8.48,0,0,1-2.67,2,7.7,7.7,0,0,1-3.4.74,7.07,7.07,0,0,1-2.15-.31,5.67,5.67,0,0,1-1.88-1v.91H0V0H4.39l0,8.47a6.17,6.17,0,0,1,1.8-1,6.66,6.66,0,0,1,2.19-.36,7.32,7.32,0,0,1,3.12.71,9.17,9.17,0,0,1,2.69,2,9.54,9.54,0,0,1,1.89,2.92A9.35,9.35,0,0,1,16.82,16.37Zm-4.42,0A6.48,6.48,0,0,0,12,14.16a4.87,4.87,0,0,0-1-1.71,4.36,4.36,0,0,0-1.55-1.09,5.06,5.06,0,0,0-2-.38,5.44,5.44,0,0,0-1.61.29A5,5,0,0,0,4.36,12v8.41a4.63,4.63,0,0,0,3.22,1.3,4.74,4.74,0,0,0,1.92-.39A4.48,4.48,0,0,0,11,20.23a5.31,5.31,0,0,0,1-1.7A6.24,6.24,0,0,0,12.4,16.37Z"/><path class="cls-1" d="M33.73,25.11H29.38v-.94a7.1,7.1,0,0,1-2.44,1.09,11.11,11.11,0,0,1-2.65.31,6.72,6.72,0,0,1-2.3-.38,5.21,5.21,0,0,1-1.78-1.09A5.08,5.08,0,0,1,19,22.42a5.53,5.53,0,0,1-.4-2.15,5,5,0,0,1,.65-2.59,5.55,5.55,0,0,1,1.77-1.84,8.22,8.22,0,0,1,2.61-1.1,13.31,13.31,0,0,1,3.23-.37h2.51a3.17,3.17,0,0,0-1-2.45A4.15,4.15,0,0,0,25.54,11a5.8,5.8,0,0,0-1.88.34,5.59,5.59,0,0,0-1.94,1.21L19.15,10a10.25,10.25,0,0,1,7-2.78,8.38,8.38,0,0,1,3.23.58,6.35,6.35,0,0,1,2.29,1.48,6.51,6.51,0,0,1,1.61,2.57,11.92,11.92,0,0,1,.46,3.63Zm-4.35-4.35V17.52h-2a11.47,11.47,0,0,0-1.71.12,4.84,4.84,0,0,0-1.39.41,2.6,2.6,0,0,0-.94.74A1.74,1.74,0,0,0,23,19.88a1.83,1.83,0,0,0,.71,1.48,2.86,2.86,0,0,0,1.83.58,6.13,6.13,0,0,0,1.93-.31A9.53,9.53,0,0,0,29.38,20.76Z"/><path class="cls-1" d="M49.65,9.44l-2.33,3.69a8.58,8.58,0,0,0-1.41-1.22,2.74,2.74,0,0,0-1.56-.53,2.36,2.36,0,0,0-.92.2,2.58,2.58,0,0,0-.94.65,3.72,3.72,0,0,0-.74,1.19,4.9,4.9,0,0,0-.3,1.83v9.86H37.09V7.63h4.36V9.5a6.17,6.17,0,0,1,1.74-1.72,3.9,3.9,0,0,1,2.13-.61,4.55,4.55,0,0,1,2.25.62A9.09,9.09,0,0,1,49.65,9.44Z"/><path class="cls-1" d="M68,16.37a10.05,10.05,0,0,1-.62,3.51,9.23,9.23,0,0,1-1.75,2.92,8.29,8.29,0,0,1-2.67,2,7.79,7.79,0,0,1-3.39.74,7.07,7.07,0,0,1-2.15-.32,6,6,0,0,1-1.89-1v.9H51.19V0h4.39l0,8.48a5.74,5.74,0,0,1,1.8-1,6.62,6.62,0,0,1,2.19-.37,7.19,7.19,0,0,1,3.12.72,9,9,0,0,1,2.69,2,9.6,9.6,0,0,1,1.89,2.92A9.3,9.3,0,0,1,68,16.37Zm-4.42,0a6.53,6.53,0,0,0-.36-2.21,5.05,5.05,0,0,0-1-1.71,4.49,4.49,0,0,0-1.55-1.09,5.08,5.08,0,0,0-2-.37,5.51,5.51,0,0,0-1.61.28,5.32,5.32,0,0,0-1.51.74v8.42a4.71,4.71,0,0,0,3.22,1.3,4.63,4.63,0,0,0,1.93-.4,4.48,4.48,0,0,0,1.54-1.1,5.26,5.26,0,0,0,1-1.69A6.29,6.29,0,0,0,63.59,16.37Z"/><path class="cls-2" d="M87.84,12.26a7.58,7.58,0,0,1,.34.81c.11.28.21.58.32.89L75.93,20.08a6.27,6.27,0,0,0,1.24,1,4.73,4.73,0,0,0,1.48.59A5,5,0,0,0,82,21.22,7,7,0,0,0,84,19.82,5.76,5.76,0,0,0,85.24,18l3.68,1.27a12.24,12.24,0,0,1-2.36,3.28,11.93,11.93,0,0,1-3.06,2.12,9.29,9.29,0,0,1-10.21-1.27,9.16,9.16,0,0,1-2.22-2.91,8.94,8.94,0,0,1-.92-3.54,9.16,9.16,0,0,1,.52-3.5,9.76,9.76,0,0,1,1.8-3.07,9.27,9.27,0,0,1,3-2.24,9.49,9.49,0,0,1,3.48-.94,9.89,9.89,0,0,1,3.52.39,9,9,0,0,1,3.12,1.7A8.83,8.83,0,0,1,87.84,12.26ZM83,12.74a5.18,5.18,0,0,0-2.82-1.61,4.81,4.81,0,0,0-3.12.39,4.7,4.7,0,0,0-2.2,2.2,5.36,5.36,0,0,0-.46,3.2Z"/><path class="cls-1" d="M107.28,22.49a8.78,8.78,0,0,1-3.21,2.3,10.13,10.13,0,0,1-3.93.78,9.46,9.46,0,0,1-3.6-.69A9.1,9.1,0,0,1,93.6,23a9,9,0,0,1-2-2.91,9.28,9.28,0,0,1-.72-3.67,9.05,9.05,0,0,1,.72-3.61,9.2,9.2,0,0,1,2-2.92,8.8,8.8,0,0,1,2.92-1.95,9.18,9.18,0,0,1,3.63-.71,10.15,10.15,0,0,1,3.8.72,8.56,8.56,0,0,1,3.13,2.21l-2.94,3a5.49,5.49,0,0,0-1.62-1.45,4.31,4.31,0,0,0-2.31-.58,4.35,4.35,0,0,0-1.89.42,5.23,5.23,0,0,0-1.57,1.14,5.06,5.06,0,0,0-1.08,1.68,5.61,5.61,0,0,0,0,4.11,5.34,5.34,0,0,0,1.06,1.68,5.11,5.11,0,0,0,1.57,1.14,4.51,4.51,0,0,0,1.91.42,4.62,4.62,0,0,0,2.36-.62,5,5,0,0,0,1.69-1.59Z"/><path class="cls-1" d="M125.25,25.12h-4.36V14.65A4.26,4.26,0,0,0,120.6,13a3.48,3.48,0,0,0-.76-1.18,2.9,2.9,0,0,0-1.09-.69,3.73,3.73,0,0,0-1.29-.23,6,6,0,0,0-1.91.3,8,8,0,0,0-1.77.85V25.12h-4.35V0h4.35l0,8.59a6.64,6.64,0,0,1,2.24-1.12,9,9,0,0,1,2.45-.36,7.5,7.5,0,0,1,2.57.44,5.93,5.93,0,0,1,2.15,1.33,6.28,6.28,0,0,1,1.49,2.24,8.56,8.56,0,0,1,.54,3.19Z"/><path class="cls-1" d="M136,25a6.15,6.15,0,0,1-2.51.54,6.68,6.68,0,0,1-1.86-.25A3.9,3.9,0,0,1,129,23a5.74,5.74,0,0,1-.39-2.23V0H133V20a2.05,2.05,0,0,0,.44,1.5,1.48,1.48,0,0,0,1,.4,2.65,2.65,0,0,0,1.45-.45Z"/><path class="cls-1" d="M142.62,4.58h-4.54V0h4.54Zm-.07,20.54h-4.41V7.6h4.41Z"/><path class="cls-2" d="M142.62,4.58h-4.54V0h4.54Z"/></g></g></svg>